<svg class="svg-icon" style="width: 1em; height: 1em;vertical-align: middle;fill: currentColor;overflow: hidden;" viewBox="0 0 1024 1024" version="1.1" xmlns="http://www.w3.org/2000/svg"><path d="M1024 409.6c0-15.36-5.12-30.72-12.8-46.08-20.48-38.4-58.88-58.88-97.28-58.88l0 0L844.8 304.64l-53.76-110.08 53.76 0 0 0c0 0 0 0 0 0C860.16 192 870.4 204.8 870.4 220.16l0 2.56 0 0c0 0 0 0 0 0l0 46.08c0 15.36 10.24 25.6 25.6 25.6s25.6-10.24 25.6-25.6L921.6 222.72l0 0c0 0 0 0 0 0 0 0 0 0 0-2.56 0 0 0 0 0 0 0 0 0-2.56 0-2.56-2.56-40.96-35.84-74.24-76.8-74.24 0 0 0 0 0 0l0 0 0 0-76.8 0-25.6-53.76c-12.8-25.6-38.4-40.96-66.56-40.96-10.24 0-20.48 2.56-33.28 7.68l-179.2 87.04L112.64 143.36 107.52 143.36C48.64 140.8 0 189.44 0 248.32c0 0 0 2.56 0 2.56 0 0 0 2.56 0 2.56l0 611.84c0 61.44 51.2 112.64 112.64 112.64l798.72 0c61.44 0 112.64-51.2 112.64-112.64L1024 409.6 1024 409.6zM473.6 192 473.6 192 473.6 192l69.12-33.28 120.32-58.88c2.56-2.56 5.12-2.56 10.24-2.56 7.68 0 15.36 2.56 20.48 12.8l38.4 76.8 2.56 5.12 53.76 110.08L245.76 302.08 473.6 192zM112.64 192 358.4 192l-227.84 110.08L107.52 302.08C76.8 304.64 53.76 279.04 51.2 250.88 53.76 217.6 79.36 192 112.64 192zM972.8 865.28c0 33.28-28.16 61.44-61.44 61.44L112.64 926.72c-33.28 0-61.44-28.16-61.44-61.44L51.2 337.92c15.36 10.24 35.84 15.36 56.32 15.36l30.72 0 2.56 0 663.04 0L819.2 353.28l102.4 2.56c17.92 2.56 35.84 15.36 43.52 30.72 2.56 5.12 5.12 12.8 5.12 20.48l0 99.84-225.28 0c-58.88 0-107.52 48.64-107.52 107.52 0 58.88 48.64 107.52 107.52 107.52L972.8 721.92 972.8 865.28zM972.8 670.72l-225.28 0c-30.72 0-56.32-25.6-56.32-56.32s25.6-56.32 56.32-56.32L972.8 558.08 972.8 670.72z"  /></svg>