<svg class="svg-icon" style="width: 1em; height: 1em;vertical-align: middle;fill: currentColor;overflow: hidden;" viewBox="0 0 1024 1024" version="1.1" xmlns="http://www.w3.org/2000/svg"><path d="M549.668133 1024 473.922431 1024c-15.763295 0-29.172331-5.527389-40.227109-16.582167C422.538185 996.363055 417.010796 982.954018 417.010796 967.088365L417.010796 898.405438C379.137945 888.886046 341.162735 873.22511 303.289884 851.013195L262.960416 893.696921C251.905638 904.751699 238.496601 910.279088 222.733307 910.279088c-15.763295 0-29.27469-5.527389-40.329468-16.582167L130.303079 841.596162c-25.282687-25.180328-25.282687-52.10076 0-80.556577L172.986805 720.710116c-22.109556-37.872851-37.872851-75.848061-47.392243-113.720912L56.911635 606.989204c-15.763295 0-29.172331-5.527389-40.227109-16.582167C5.527389 579.352259 0 565.943223 0 550.077569L0 474.331867c0-15.763295 5.527389-29.27469 16.582167-40.329468C27.636945 423.04998 41.045982 417.420232 56.911635 417.420232l68.682927 0C135.113954 379.547381 150.877249 341.572171 172.986805 303.69932L130.303079 263.369852C119.248301 252.417433 113.720912 238.906038 113.720912 223.142743c0-15.763295 5.527389-29.27469 16.582167-40.227109l52.10076-52.10076C193.458617 119.760096 206.970012 114.130348 222.733307 114.130348c15.763295 0 29.172331 5.629748 40.227109 16.582167L303.289884 173.396242c37.872851-22.109556 75.848061-37.872851 113.720912-47.392243L417.010796 57.321072c0-15.763295 5.527389-29.27469 16.582167-40.329468C444.647741 6.039184 458.056777 0.409436 473.922431 0.409436L549.668133 0.409436c15.763295 0 29.27469 5.629748 40.329468 16.582167 11.054778 11.054778 16.582167 24.566174 16.582167 40.329468l0 68.682927c37.872851 9.519392 75.848061 25.282687 113.720912 47.392243l40.329468-42.683727C771.684926 119.760096 785.093962 114.130348 800.857257 114.130348c15.763295 0 29.27469 5.629748 40.329468 16.582167l52.10076 52.10076c25.282687 25.282687 25.282687 52.10076 0 80.556577L850.603758 303.69932c22.109556 37.872851 37.872851 75.848061 47.392243 113.720912l68.682927 0c15.763295 0 29.27469 5.629748 40.329468 16.582167C1018.063175 445.057177 1023.590564 458.568573 1023.590564 474.331867L1023.590564 550.077569c0 15.763295-5.527389 29.27469-16.582167 40.227109C995.953619 601.461815 982.544582 606.989204 966.678928 606.989204L897.996002 606.989204C888.578968 644.862055 872.713315 682.837265 850.603758 720.710116l42.683727 40.227109c11.054778 11.054778 16.582167 24.566174 16.582167 40.329468 0 15.763295-5.527389 29.27469-16.582167 40.227109L841.186725 893.696921C830.131947 904.751699 816.620552 910.279088 800.857257 910.279088c-15.763295 0-29.172331-5.527389-40.227109-16.582167L720.30068 851.013195c-37.872851 22.211915-75.848061 37.872851-113.720912 47.392243l0 68.682927c0 15.763295-5.527389 29.27469-16.582167 40.227109C578.942823 1018.472611 565.533786 1024 549.668133 1024zM300.935626 808.431827c1.535386 0 3.582567 0.409436 5.936825 1.228309C309.226709 810.376649 311.171531 810.786086 312.809276 810.786086c39.510596 26.920432 82.091963 45.037985 127.94882 54.455018C450.17513 868.414234 454.883647 874.760496 454.883647 884.177529l0 82.910836c0 12.692523 6.346261 18.936425 18.936425 18.936425L549.668133 986.02479c12.590164 0 18.936425-6.243902 18.936425-18.936425l0-82.910836c0-9.519392 4.708517-15.763295 14.227909-18.936425 45.856857-9.519392 88.438225-27.636945 127.94882-54.455018C718.765294 804.439824 726.646941 805.258697 734.528589 813.140344l54.455018 54.455018c7.881647 9.519392 16.582167 9.519392 26.101559 0l52.10076-52.10076c3.173131-6.243902 4.708517-11.054778 4.708517-14.227909 0-4.708517-1.535386-8.598161-4.708517-11.873651L815.085166 734.938025C804.030388 728.694122 803.211515 720.710116 812.730908 711.190724c25.282687-41.045982 42.683727-83.729708 52.10076-127.94882C868.004798 573.82487 874.35106 569.116353 883.768093 569.116353l82.910836 0c12.590164 0 18.936425-6.243902 18.936425-18.936425L985.615354 474.331867c0-12.590164-6.346261-18.936425-18.936425-18.936425l-82.910836 0c-9.519392 0-15.763295-4.708517-18.936425-14.227909-9.519392-45.856857-27.636945-88.438225-54.455018-127.94882C804.030388 305.234706 804.84926 297.455418 812.730908 289.471411l54.455018-54.455018c9.519392-7.881647 9.519392-16.582167 0-26.101559L815.085166 156.814074c-9.519392-9.519392-18.117553-9.519392-26.101559 0L734.528589 211.269092C726.646941 219.253099 718.765294 219.969612 710.781287 213.623351c-39.510596-26.818073-82.091963-45.037985-127.94882-54.455018C573.415434 155.995202 568.706917 149.64894 568.706917 140.231907l0-82.910836c0-12.590164-6.346261-18.936425-18.936425-18.936425L473.922431 38.384646c-12.590164 0-18.936425 6.346261-18.936425 18.936425l0 82.910836c0 9.519392-4.708517 15.763295-14.227909 18.936425C396.436625 168.585366 353.855258 186.088764 312.809276 211.269092c-9.519392 9.519392-17.40104 8.70052-23.747301-2.354258L234.606957 156.814074c-7.881647-9.519392-16.582167-9.519392-26.101559 0L156.404638 208.914834C153.231507 215.261096 151.593762 219.969612 151.593762 223.142743c0 4.708517 1.637745 8.70052 4.708517 11.873651l52.10076 54.455018C219.560176 295.817673 220.379048 303.69932 210.859656 313.218713c-25.282687 41.148341-42.683727 83.729708-52.10076 127.94882C155.585766 450.584566 149.239504 455.293083 139.822471 455.293083l-82.910836 0c-12.590164 0-18.936425 6.346261-18.936425 18.936425L37.97521 550.077569c0 12.692523 6.346261 18.936425 18.936425 18.936425l82.910836 0c9.519392 0 15.763295 4.708517 18.936425 14.227909 9.519392 44.219112 26.818073 86.902839 52.10076 127.94882 7.881647 7.984006 7.881647 15.763295 0 23.747301L156.404638 789.393043c-9.519392 7.984006-9.519392 16.582167 0 26.101559l52.10076 52.10076c9.519392 9.519392 18.117553 9.519392 26.101559 0L289.061975 813.140344C292.235106 809.967213 296.227109 808.431827 300.935626 808.431827zM658.680528 661.444222C619.169932 700.954818 570.242303 720.710116 511.795282 720.710116c-58.447021 0-107.784086-20.164734-148.113555-60.391843C323.454618 619.988804 303.289884 570.651739 303.289884 512.204718c0-58.447021 20.164734-107.784086 60.391843-148.113555C404.011196 323.864054 453.348261 303.69932 511.795282 303.69932c58.447021 0 107.784086 20.164734 148.113555 60.391843C700.135946 404.420632 720.30068 453.757697 720.30068 512.204718 720.30068 570.651739 699.726509 620.398241 658.680528 661.444222zM632.681327 391.318673C599.414634 358.154338 559.187525 341.572171 511.795282 341.572171c-47.392243 0-87.619352 16.582167-120.886046 49.746501C357.744902 424.585366 341.162735 464.812475 341.162735 512.204718c0 47.392243 16.582167 87.619352 49.746501 120.886046C424.17593 666.255098 464.403039 682.837265 511.795282 682.837265c47.392243 0 87.619352-16.582167 120.886046-49.746501C665.845662 599.82407 682.427829 559.596961 682.427829 512.204718 682.427829 464.812475 665.845662 424.585366 632.681327 391.318673z"  /></svg>